<?xml version="1.0" encoding="utf-8"?>
<svg width="524px" height="524px" viewBox="0 0 524 524" version="1.1" xmlns:xlink="http://www.w3.org/1999/xlink" xmlns="http://www.w3.org/2000/svg">
  <defs>
    <path d="M512 0L512 0L512 512L0 512L0 0L512 0Z" id="path_1" />
    <path d="M462.049 0L462.049 0L462.049 437.073L0 437.073L0 0L462.049 0Z" id="path_2" />
    <clipPath id="clip_1">
      <use xlink:href="#path_1" clip-rule="evenodd" fill-rule="evenodd" />
    </clipPath>
    <clipPath id="clip_2">
      <use xlink:href="#path_2" clip-rule="evenodd" fill-rule="evenodd" />
    </clipPath>
  </defs>
  <g id="Group">
    <g id="SolarChatRoundBoldDuotone">
      <path d="M512 0L512 0L512 512L0 512L0 0L512 0Z" id="SolarChatRoundBoldDuotone" fill="none" stroke="none" />
      <path d="M159.061 65.92C87.6177 102.364 42.6504 175.798 42.6666 256C42.6666 290.133 50.688 322.389 64.9173 350.997C68.7146 358.592 69.9733 367.296 67.776 375.488L55.0826 422.976C52.524 432.541 55.2585 442.744 62.2574 449.747C69.2562 456.75 79.4577 459.491 89.024 456.939L136.512 444.224C144.757 442.148 153.478 443.165 161.024 447.083C190.529 461.765 223.044 469.382 256 469.333C360.213 469.333 446.976 394.603 465.621 295.808C399.768 372.615 285.614 385.141 204.672 324.443C123.73 263.745 103.777 150.652 159.061 65.92" id="Shape" fill="#FFA639" stroke="none" clip-path="url(#clip_1)" />
      <path d="M159.061 65.92C87.6177 102.364 42.6504 175.798 42.6666 256C42.6666 290.133 50.688 322.389 64.9173 350.997C68.7146 358.592 69.9733 367.296 67.776 375.488L55.0826 422.976C52.524 432.541 55.2585 442.744 62.2574 449.747C69.2562 456.75 79.4577 459.491 89.024 456.939L136.512 444.224C144.757 442.148 153.478 443.165 161.024 447.083C190.529 461.765 223.044 469.382 256 469.333C360.213 469.333 446.976 394.603 465.621 295.808C399.768 372.615 285.614 385.141 204.672 324.443C123.73 263.745 103.777 150.652 159.061 65.92" id="Shape" fill="#FFA639" stroke="none" clip-path="url(#clip_1)" />
      <path d="M465.621 295.808C468.068 282.88 469.305 269.611 469.333 256C469.333 138.176 373.824 42.6667 256 42.6667C222.3 42.6208 189.073 50.5912 159.061 65.92C103.777 150.652 123.729 263.745 204.672 324.443C285.614 385.142 399.768 372.615 465.621 295.808" id="Shape" fill="#FFA639" fill-opacity="0.5" stroke="none" clip-path="url(#clip_1)" />
      <path d="M465.621 295.808C468.068 282.88 469.305 269.611 469.333 256C469.333 138.176 373.824 42.6667 256 42.6667C222.3 42.6208 189.073 50.5912 159.061 65.92C103.777 150.652 123.729 263.745 204.672 324.443C285.614 385.142 399.768 372.615 465.621 295.808" id="Shape" fill="#FFA639" fill-opacity="0.5" stroke="none" clip-path="url(#clip_1)" />
    </g>
    <g id="SolarFireBoldDuotone">
      <path d="M462.049 0L462.049 0L462.049 437.073L0 437.073L0 0L462.049 0Z" id="SolarFireBoldDuotone" fill="none" stroke="none" transform="translate(43.01355 31.91328)" />
      <path d="M154.016 299.37C154.016 347.084 194.657 361.835 219.8 363.875C228.387 362.855 219.8 365.678 247.042 360.506C267.045 353.822 288.781 336.667 288.781 299.37C288.781 275.75 273.013 261.163 260.673 254.333C256.899 252.239 252.51 254.88 252.182 258.996C251.104 272.071 237.82 282.488 228.791 272.545C220.802 263.767 217.432 250.928 217.432 242.715L217.432 231.97C217.432 225.523 210.559 221.225 204.668 224.54C182.798 236.796 154.016 262.055 154.016 299.388" id="Shape-2" fill="#FF8239" stroke="none" clip-path="url(#clip_2)" transform="translate(43.01355 31.91328)" />
      <path d="M154.016 299.37C154.016 347.084 194.657 361.835 219.8 363.875C228.387 362.855 219.8 365.678 247.042 360.506C267.045 353.822 288.781 336.667 288.781 299.37C288.781 275.75 273.013 261.163 260.673 254.333C256.899 252.239 252.51 254.88 252.182 258.996C251.104 272.071 237.82 282.488 228.791 272.545C220.802 263.767 217.432 250.928 217.432 242.715L217.432 231.97C217.432 225.523 210.559 221.225 204.668 224.54C182.798 236.796 154.016 262.055 154.016 299.388" id="Shape-2" fill="#FF8239" stroke="none" clip-path="url(#clip_2)" transform="translate(43.01355 31.91328)" />
      <path d="M247.042 397.026C307.224 385.626 385.041 344.669 385.041 238.769C385.041 142.413 310.478 78.2361 256.861 48.7519C244.944 42.1958 231.024 50.8098 231.024 63.8309L231.024 97.1213C231.024 123.382 219.358 171.315 186.937 191.256C170.38 201.436 152.476 186.193 150.474 167.618L148.818 152.356C146.893 134.619 127.795 123.856 112.817 134.673C85.8833 154.068 57.7561 188.124 57.7561 238.751C57.7561 368.252 159.58 400.65 210.482 400.65C213.46 400.65 216.566 400.559 219.8 400.377C228.387 399.357 219.8 402.18 247.042 397.008" id="Shape" fill="#FFA639" fill-opacity="0.5" stroke="none" clip-path="url(#clip_2)" transform="translate(43.01355 31.91328)" />
      <path d="M247.042 397.026C307.224 385.626 385.041 344.669 385.041 238.769C385.041 142.413 310.478 78.2361 256.861 48.7519C244.944 42.1958 231.024 50.8098 231.024 63.8309L231.024 97.1213C231.024 123.382 219.358 171.315 186.937 191.256C170.38 201.436 152.476 186.193 150.474 167.618L148.818 152.356C146.893 134.619 127.795 123.856 112.817 134.673C85.8833 154.068 57.7561 188.124 57.7561 238.751C57.7561 368.252 159.58 400.65 210.482 400.65C213.46 400.65 216.566 400.559 219.8 400.377C228.387 399.357 219.8 402.18 247.042 397.008" id="Shape" fill="#FFA639" fill-opacity="0.5" stroke="none" clip-path="url(#clip_2)" transform="translate(43.01355 31.91328)" />
      <path d="M154.016 335.891C154.016 383.605 194.657 398.356 219.8 400.396C228.387 399.376 219.8 402.198 247.042 397.026C267.045 390.343 288.781 373.188 288.781 335.891C288.781 312.271 273.013 297.683 260.673 290.854C256.899 288.76 252.51 291.4 252.182 295.516C251.104 308.592 237.82 319.009 228.791 309.065C220.802 300.288 217.432 287.449 217.432 279.235L217.432 268.49C217.432 262.044 210.559 257.746 204.668 261.06C182.798 273.316 154.016 298.576 154.016 335.909" id="Shape" fill="#FFA639" stroke="none" clip-path="url(#clip_2)" transform="translate(43.01355 31.91328)" />
      <path d="M154.016 335.891C154.016 383.605 194.657 398.356 219.8 400.396C228.387 399.376 219.8 402.198 247.042 397.026C267.045 390.343 288.781 373.188 288.781 335.891C288.781 312.271 273.013 297.683 260.673 290.854C256.899 288.76 252.51 291.4 252.182 295.516C251.104 308.592 237.82 319.009 228.791 309.065C220.802 300.288 217.432 287.449 217.432 279.235L217.432 268.49C217.432 262.044 210.559 257.746 204.668 261.06C182.798 273.316 154.016 298.576 154.016 335.909" id="Shape" fill="#FFA639" stroke="none" clip-path="url(#clip_2)" transform="translate(43.01355 31.91328)" />
    </g>
  </g>
</svg>